<?xml version="1.0" encoding="UTF-8"?>
<svg width="172px" height="50px" viewBox="0 0 172 50" version="1.1" xmlns="http://www.w3.org/2000/svg" xmlns:xlink="http://www.w3.org/1999/xlink">
    <!-- Generator: Sketch 39.1 (31720) - http://www.bohemiancoding.com/sketch -->
    <title>ginger_logo_RGB</title>
    <desc>Created with Sketch.</desc>
    <defs></defs>
    <g id="Page-1" stroke="none" stroke-width="1" fill="none" fill-rule="evenodd">
        <g id="ginger_logo_RGB">
            <path d="M21.0040212,14.2664444 C24.2415344,9.96325926 29.3897037,7.1757672 35.1776402,7.1757672 C40.9664868,7.1757672 46.1160212,9.96371429 49.3526243,14.2682646 L49.3498942,14.2687196 L21.0040212,14.2687196 L21.0040212,14.2664444 L21.0040212,14.2664444 Z M35.1776402,35.5448466 L49.3526243,35.535746 L49.3521693,35.5375661 C46.1160212,39.8407513 40.9664868,42.6296085 35.1776402,42.6296085 C25.403672,42.6296085 17.4511746,34.6780212 17.4511746,24.9017778 C17.4511746,23.6886772 17.5740317,22.5037884 17.8079153,21.3575767 L59.7390582,21.3575767 C58.0186032,9.33259259 47.678127,0.091005291 35.1776402,0.091005291 C25.2808148,0.091005291 16.736328,5.8857672 12.7539365,14.2687196 L0.331714286,14.2687196 C1.79462434,18.3999048 5.74061376,21.3666772 10.3668677,21.3666772 L10.6175873,21.3575767 C10.4510476,22.515619 10.3659577,23.6982328 10.3659577,24.9017778 C10.3659577,26.1057778 10.4510476,27.2888466 10.6184974,28.4464339 L0.331714286,28.4464339 C1.79462434,32.5780741 5.74061376,35.5448466 10.3668677,35.5448466 L12.7539365,35.535746 C16.736328,43.9186984 25.2808148,49.7143704 35.1776402,49.7143704 C45.0762857,49.7143704 53.6194074,43.9186984 57.6017989,35.535746 C58.6479048,33.3325079 59.3809524,30.9504444 59.7390582,28.448709 L59.7390582,28.4464339 L25.1424868,28.4464339 C26.6058519,32.5780741 30.5522963,35.5448466 35.1776402,35.5448466 L35.1776402,35.5448466 Z" id="Fill-1" fill="#DB452B"></path>
            <path d="M87.2831746,12.1123492 L84.5980635,14.7674286 C82.8999048,12.9700741 80.9196296,12.0718519 78.6581481,12.0718519 C76.6865185,12.0718519 75.0356825,12.7252698 73.7047302,14.0321058 C72.3737778,15.3393968 71.7085291,16.9278942 71.7085291,18.7971429 C71.7085291,20.7305503 72.3988042,22.3691005 73.7798095,23.7118836 C75.1608148,25.0555767 76.8639788,25.7267407 78.8906667,25.7267407 C80.2079683,25.7267407 81.3191429,25.4500847 82.2228254,24.8967725 C83.126963,24.3430053 83.8563704,23.4761799 84.4105926,22.2962963 L78.6108254,22.2962963 L78.6108254,18.7156931 L88.6851111,18.7156931 L88.7124127,19.5597672 C88.7124127,21.311619 88.2587513,22.9724656 87.3509735,24.5423069 C86.4436508,26.1130582 85.2683175,27.3111429 83.8249735,28.1370159 C82.3820847,28.9624339 80.6893862,29.3751429 78.7468783,29.3751429 C76.6683175,29.3751429 74.8145397,28.9242116 73.1850899,28.0214392 C71.5560952,27.1177566 70.2674603,25.8313968 69.3187302,24.1614497 C68.37,22.4915026 67.8963175,20.6895979 67.8963175,18.7561905 C67.8963175,16.1065714 68.7722434,13.8009524 70.5236402,11.8402434 C72.6026561,9.50777778 75.3068783,8.34154497 78.638127,8.34154497 C80.3804233,8.34154497 82.009418,8.6637037 83.5255661,9.30802116 C84.8055556,9.85268783 86.0577884,10.7877672 87.2831746,12.1123492" id="Fill-2" fill="#1B313E"></path>
            <polygon id="Fill-3" fill="#1B313E" points="91.9394603 28.8718836 95.7239153 28.8718836 95.7239153 8.84525926 91.9394603 8.84525926"></polygon>
            <polyline id="Fill-4" fill="#1B313E" points="100.02619 8.84525926 103.682783 8.84525926 112.251386 22.0237354 112.251386 8.84525926 116.063598 8.84525926 116.063598 28.8718836 112.39654 28.8718836 103.838402 15.7339048 103.838402 28.8718836 100.02619 28.8718836 100.02619 8.84525926"></polyline>
            <path d="M139.126614,12.1123492 L136.441503,14.7674286 C134.743344,12.9700741 132.763524,12.0718519 130.501587,12.0718519 C128.529503,12.0718519 126.879577,12.7252698 125.548169,14.0321058 C124.217217,15.3393968 123.551513,16.9278942 123.551513,18.7971429 C123.551513,20.7305503 124.242243,22.3691005 125.623249,23.7118836 C127.004254,25.0555767 128.707418,25.7267407 130.734561,25.7267407 C132.051407,25.7267407 133.162127,25.4500847 134.06672,24.8967725 C134.970402,24.3430053 135.700265,23.4761799 136.254032,22.2962963 L130.454265,22.2962963 L130.454265,18.7156931 L140.529005,18.7156931 L140.555852,19.5597672 C140.555852,21.311619 140.102646,22.9724656 139.194868,24.5423069 C138.28709,26.1130582 137.111302,27.3111429 135.668413,28.1370159 C134.225069,28.9624339 132.53328,29.3751429 130.590317,29.3751429 C128.512212,29.3751429 126.658434,28.9242116 125.028529,28.0214392 C123.399079,27.1177566 122.110444,25.8313968 121.162169,24.1614497 C120.213439,22.4915026 119.739757,20.6895979 119.739757,18.7561905 C119.739757,16.1065714 120.615228,13.8009524 122.367534,11.8402434 C124.44564,9.50777778 127.150317,8.34154497 130.481566,8.34154497 C132.223862,8.34154497 133.852857,8.6637037 135.369005,9.30802116 C136.64945,9.85268783 137.901683,10.7877672 139.126614,12.1123492" id="Fill-5" fill="#1B313E"></path>
            <polyline id="Fill-6" fill="#1B313E" points="144.068656 8.84525926 155.001122 8.84525926 155.001122 12.5755661 147.853566 12.5755661 147.853566 16.1971217 155.001122 16.1971217 155.001122 19.8591746 147.853566 19.8591746 147.853566 25.1279259 155.001122 25.1279259 155.001122 28.8718836 144.068656 28.8718836 144.068656 8.84525926"></polyline>
            <path d="M162.62509,16.6730794 L163.819534,16.6730794 C165.03218,16.6730794 165.866243,16.5138201 166.323545,16.1953016 C166.779937,15.8767831 167.008815,15.3484974 167.008815,14.6104444 C167.008815,14.173619 166.895513,13.793672 166.669365,13.4701481 C166.443672,13.1470794 166.139714,12.9150159 165.760222,12.7739577 C165.380275,12.6324444 164.68363,12.5619153 163.670286,12.5619153 L162.62509,12.5619153 L162.62509,16.6730794 L162.62509,16.6730794 Z M158.813333,8.84525926 L162.851693,8.84525926 C165.064032,8.84525926 166.638878,9.04274074 167.577143,9.43724868 C168.515862,9.83221164 169.269841,10.4879048 169.84181,11.4047831 C170.412868,12.3216614 170.698624,13.4059894 170.698624,14.6582222 C170.698624,15.9746138 170.382836,17.0753228 169.752624,17.9594392 C169.121958,18.8449206 168.171407,19.5142646 166.900519,19.9679259 L171.644624,28.8718836 L167.477492,28.8718836 L162.97364,20.3901905 L162.62509,20.3901905 L162.62509,28.8718836 L158.813333,28.8718836 L158.813333,8.84525926 L158.813333,8.84525926 Z" id="Fill-7" fill="#1B313E"></path>
            <path d="M70.4922434,35.6586032 L70.4922434,39.0562857 L72.187672,39.0767619 C72.8724868,39.0767619 73.3739259,39.0130582 73.6919894,38.889291 C74.0095979,38.7650688 74.2589524,38.5634921 74.4405079,38.2845608 C74.6225185,38.0060847 74.7126138,37.6948466 74.7126138,37.3503915 C74.7126138,37.0154921 74.6225185,36.7088042 74.4405079,36.429873 C74.2589524,36.1513968 74.0196085,35.9530053 73.7229312,35.8356085 C73.4253439,35.7177566 72.9384656,35.6586032 72.2618413,35.6586032 L70.4922434,35.6586032 L70.4922434,35.6586032 Z M69.4916402,34.6789312 L71.4864762,34.6789312 C72.6304127,34.6789312 73.4012275,34.7285291 73.8011958,34.8290899 C74.373164,34.9692381 74.8400212,35.2577249 75.2026772,35.6959153 C75.5662434,36.1350159 75.7473439,36.6846878 75.7473439,37.3472063 C75.7473439,38.0147302 75.5707937,38.5648571 75.2167831,38.9984974 C74.8627725,39.4316825 74.3749841,39.7228995 73.752963,39.8730582 C73.2993016,39.9813545 72.4506772,40.0359577 71.2070899,40.0359577 L70.4922434,40.0359577 L70.4922434,44.6926984 L69.4916402,44.6926984 L69.4916402,34.6789312 L69.4916402,34.6789312 Z" id="Fill-8" fill="#1B313E"></path>
            <path d="M85.5581693,36.8057249 L83.8427196,40.4304656 L87.2663386,40.4304656 L85.5581693,36.8057249 L85.5581693,36.8057249 Z M85.6846667,34.6789312 L90.3546032,44.6926984 L89.2734603,44.6926984 L87.6986138,41.3978519 L83.384963,41.3978519 L81.8251323,44.6926984 L80.7084974,44.6926984 L85.4398624,34.6789312 L85.6846667,34.6789312 L85.6846667,34.6789312 Z" id="Fill-9" fill="#1B313E"></path>
            <polyline id="Fill-10" fill="#1B313E" points="94.2946772 34.6789312 95.4458942 34.6789312 98.0081481 38.8087513 100.53036 34.6789312 101.686582 34.6789312 98.5150476 39.9067302 98.5150476 44.6926984 97.5276402 44.6926984 97.5276402 39.9067302 94.2946772 34.6789312"></polyline>
            <polyline id="Fill-11" fill="#1B313E" points="107.757545 44.6926984 109.191788 34.6789312 109.353778 34.6789312 113.424444 42.8953439 117.455979 34.6789312 117.616148 34.6789312 119.057217 44.6926984 118.07618 44.6926984 117.086497 37.531037 113.545937 44.6926984 113.290667 44.6926984 109.707788 37.4764339 108.724021 44.6926984 107.757545 44.6926984"></polyline>
            <polyline id="Fill-12" fill="#1B313E" points="125.911735 34.6789312 131.650074 34.6789312 131.650074 35.6586032 126.912339 35.6586032 126.912339 38.7964656 131.608667 38.7964656 131.608667 39.7770476 126.912339 39.7770476 126.912339 43.7121164 131.608667 43.7121164 131.608667 44.6926984 125.911735 44.6926984 125.911735 34.6789312"></polyline>
            <polyline id="Fill-13" fill="#1B313E" points="138.264794 44.6926984 138.264794 34.6789312 138.482296 34.6789312 145.146614 42.3538624 145.146614 34.6789312 146.133566 34.6789312 146.133566 44.6926984 145.909238 44.6926984 139.299524 37.1092275 139.299524 44.6926984 138.264794 44.6926984"></polyline>
            <polyline id="Fill-14" fill="#1B313E" points="152.456159 35.6586032 152.456159 34.6789312 157.943323 34.6789312 157.943323 35.6586032 155.710963 35.6586032 155.710963 44.6926984 154.688974 44.6926984 154.688974 35.6586032 152.456159 35.6586032"></polyline>
            <path d="M163.231185,42.8266349 L164.082085,42.3170053 C164.680899,43.4195344 165.372995,43.9705714 166.157915,43.9705714 C166.493725,43.9705714 166.809058,43.8918519 167.10437,43.7357778 C167.399228,43.5792487 167.624011,43.3685714 167.778265,43.1064762 C167.932974,42.8430159 168.009418,42.5640847 168.009418,42.2687725 C168.009418,41.9325079 167.895661,41.6035238 167.669513,41.2822751 C167.355545,40.8368042 166.784032,40.3016931 165.954063,39.6755767 C165.118635,39.044 164.598995,38.5885185 164.395143,38.3064021 C164.041132,37.8349947 163.863672,37.324455 163.863672,36.7752381 C163.863672,36.3397778 163.968783,35.9420847 164.177185,35.5839788 C164.385587,35.225418 164.679989,34.9433016 165.059026,34.7367196 C165.437153,34.5305926 165.849407,34.4268466 166.293968,34.4268466 C166.765831,34.4268466 167.207206,34.5437884 167.618095,34.777672 C168.028984,35.0106455 168.463534,35.4406455 168.921746,36.0672169 L168.104974,36.686963 C167.728212,36.1868889 167.406963,35.8579048 167.141683,35.7000106 C166.875492,35.5407513 166.587005,35.4615767 166.273947,35.4615767 C165.869884,35.4615767 165.539534,35.5839788 165.283354,35.8287831 C165.02672,36.0740423 164.898857,36.3757249 164.898857,36.7351958 C164.898857,36.9526984 164.943905,37.1633757 165.034455,37.3676825 C165.125915,37.5715344 165.291545,37.7935873 165.531344,38.0342963 C165.662847,38.1617037 166.094212,38.4947831 166.825439,39.0348995 C167.69181,39.6755767 168.286529,40.2439048 168.608233,40.7439788 C168.930847,41.2426878 169.091471,41.745037 169.091471,42.2482963 C169.091471,42.9749735 168.816635,43.6056402 168.264688,44.1412063 C167.713651,44.6758624 167.042942,44.943873 166.253471,44.943873 C165.645556,44.943873 165.093608,44.7814286 164.598995,44.4569947 C164.104381,44.1325608 163.648444,43.5892593 163.231185,42.8266349" id="Fill-15" fill="#1B313E"></path>
        </g>
    </g>
</svg>